<svg xmlns="http://www.w3.org/2000/svg" version="1.1" xmlns:xlink="http://www.w3.org/1999/xlink" xmlns:svgjs="http://svgjs.dev/svgjs" width="1440" height="560" preserveAspectRatio="none" viewBox="0 0 1440 560">
    <g mask="url(&quot;#SvgjsMask1012&quot;)" fill="none">
        <rect width="1440" height="560" x="0" y="0" fill="url(#bgLinear)"></rect>
        <rect width="1440" height="560" x="0" y="0" fill="url(#bgRadialTopLeft)"></rect>
        <rect width="1440" height="560" x="0" y="0" fill="url(#bgRadialTopRight)"></rect>
        <rect width="1440" height="560" x="0" y="0" fill="url(#bgRadialBottom)"></rect>
        <path d="M-111.92 409.48L-111.92 409.48" stroke="#132e65" stroke-width="1.5"></path>
        <path d="M-111.92 409.48L-49.92 512.43" stroke="#132e65" stroke-width="1.5"></path>
        <path d="M-111.92 409.48L55.46 383.97" stroke="#132e65" stroke-width="1.5"></path>
        <path d="M-111.92 409.48L57.95 547.41" stroke="#132e65" stroke-width="1.5"></path>
        <path d="M-111.92 409.48L-43.49 674.49" stroke="#132e65" stroke-width="1.5"></path>
        <path d="M-111.92 409.48L87.79 658.77" stroke="#132e65" stroke-width="1.5"></path>
        <path d="M-111.92 409.48L207.92 338.26" stroke="#132e65" stroke-width="1.5"></path>
        <path d="M-49.92 512.43L-49.92 512.43" stroke="#132e65" stroke-width="1.5"></path>
        <path d="M-49.92 512.43L57.95 547.41" stroke="#132e65" stroke-width="1.5"></path>
        <path d="M-49.92 512.43L-43.49 674.49" stroke="#132e65" stroke-width="1.5"></path>
        <path d="M-43.49 674.49L-43.49 674.49" stroke="#132e65" stroke-width="1.5"></path>
        <path d="M-43.49 674.49L87.79 658.77" stroke="#132e65" stroke-width="1.5"></path>
        <path d="M-43.49 674.49L57.95 547.41" stroke="#132e65" stroke-width="1.5"></path>
        <path d="M-43.49 674.49L243.86 664.15" stroke="#132e65" stroke-width="1.5"></path>
        <path d="M-43.49 674.49L55.46 383.97" stroke="#132e65" stroke-width="1.5"></path>
        <path d="M55.46 383.97L55.46 383.97" stroke="#132e65" stroke-width="1.5"></path>
        <path d="M55.46 383.97L207.92 338.26" stroke="#132e65" stroke-width="1.5"></path>
        <path d="M55.46 383.97L57.95 547.41" stroke="#132e65" stroke-width="1.5"></path>
        <path d="M57.95 547.41L57.95 547.41" stroke="#132e65" stroke-width="1.5"></path>
        <path d="M57.95 547.41L87.79 658.77" stroke="#132e65" stroke-width="1.5"></path>
        <path d="M87.79 658.77L87.79 658.77" stroke="#132e65" stroke-width="1.5"></path>
        <path d="M87.79 658.77L243.86 664.15" stroke="#132e65" stroke-width="1.5"></path>
        <path d="M207.92 338.26L207.92 338.26" stroke="#132e65" stroke-width="1.5"></path>
        <path d="M207.92 338.26L223.19 502" stroke="#132e65" stroke-width="1.5"></path>
        <path d="M207.92 338.26L369.32 508.76" stroke="#132e65" stroke-width="1.5"></path>
        <path d="M207.92 338.26L57.95 547.41" stroke="#132e65" stroke-width="1.5"></path>
        <path d="M223.19 502L223.19 502" stroke="#132e65" stroke-width="1.5"></path>
        <path d="M223.19 502L369.32 508.76" stroke="#132e65" stroke-width="1.5"></path>
        <path d="M223.19 502L243.86 664.15" stroke="#132e65" stroke-width="1.5"></path>
        <path d="M243.86 664.15L243.86 664.15" stroke="#132e65" stroke-width="1.5"></path>
        <path d="M243.86 664.15L404.05 681.61" stroke="#132e65" stroke-width="1.5"></path>
        <path d="M243.86 664.15L369.32 508.76" stroke="#132e65" stroke-width="1.5"></path>
        <path d="M369.32 508.76L369.32 508.76" stroke="#132e65" stroke-width="1.5"></path>
        <path d="M369.32 508.76L494.06 528.64" stroke="#132e65" stroke-width="1.5"></path>
        <path d="M369.32 508.76L404.05 681.61" stroke="#132e65" stroke-width="1.5"></path>
        <path d="M404.05 681.61L404.05 681.61" stroke="#132e65" stroke-width="1.5"></path>
        <path d="M404.05 681.61L539.37 639.63" stroke="#132e65" stroke-width="1.5"></path>
        <path d="M494.06 528.64L494.06 528.64" stroke="#132e65" stroke-width="1.5"></path>
        <path d="M494.06 528.64L539.37 639.63" stroke="#132e65" stroke-width="1.5"></path>
        <path d="M494.06 528.64L641.33 542.96" stroke="#132e65" stroke-width="1.5"></path>
        <path d="M494.06 528.64L404.05 681.61" stroke="#132e65" stroke-width="1.5"></path>
        <path d="M539.37 639.63L539.37 639.63" stroke="#132e65" stroke-width="1.5"></path>
        <path d="M539.37 639.63L641.33 542.96" stroke="#132e65" stroke-width="1.5"></path>
        <path d="M539.37 639.63L678.99 675.91" stroke="#132e65" stroke-width="1.5"></path>
        <path d="M706.53 230.1L706.53 230.1" stroke="#132e65" stroke-width="1.5"></path>
        <path d="M706.53 230.1L857.76 214.6" stroke="#132e65" stroke-width="1.5"></path>
        <path d="M706.53 230.1L702.78 384.46" stroke="#132e65" stroke-width="1.5"></path>
        <path d="M706.53 230.1L830.96 402.26" stroke="#132e65" stroke-width="1.5"></path>
        <path d="M702.78 384.46L702.78 384.46" stroke="#132e65" stroke-width="1.5"></path>
        <path d="M702.78 384.46L830.96 402.26" stroke="#132e65" stroke-width="1.5"></path>
        <path d="M702.78 384.46L641.33 542.96" stroke="#132e65" stroke-width="1.5"></path>
        <path d="M702.78 384.46L821.72 556.46" stroke="#132e65" stroke-width="1.5"></path>
        <path d="M702.78 384.46L857.76 214.6" stroke="#132e65" stroke-width="1.5"></path>
        <path d="M641.33 542.96L641.33 542.96" stroke="#132e65" stroke-width="1.5"></path>
        <path d="M641.33 542.96L678.99 675.91" stroke="#132e65" stroke-width="1.5"></path>
        <path d="M641.33 542.96L821.72 556.46" stroke="#132e65" stroke-width="1.5"></path>
        <path d="M641.33 542.96L814.85 656.43" stroke="#132e65" stroke-width="1.5"></path>
        <path d="M678.99 675.91L678.99 675.91" stroke="#132e65" stroke-width="1.5"></path>
        <path d="M678.99 675.91L814.85 656.43" stroke="#132e65" stroke-width="1.5"></path>
        <path d="M678.99 675.91L821.72 556.46" stroke="#132e65" stroke-width="1.5"></path>
        <path d="M857.76 214.6L857.76 214.6" stroke="#132e65" stroke-width="1.5"></path>
        <path d="M857.76 214.6L964.31 64.24" stroke="#132e65" stroke-width="1.5"></path>
        <path d="M857.76 214.6L830.96 402.26" stroke="#132e65" stroke-width="1.5"></path>
        <path d="M857.76 214.6L953.8 379.39" stroke="#132e65" stroke-width="1.5"></path>
        <path d="M830.96 402.26L830.96 402.26" stroke="#132e65" stroke-width="1.5"></path>
        <path d="M830.96 402.26L953.8 379.39" stroke="#132e65" stroke-width="1.5"></path>
        <path d="M830.96 402.26L821.72 556.46" stroke="#132e65" stroke-width="1.5"></path>
        <path d="M821.72 556.46L821.72 556.46" stroke="#132e65" stroke-width="1.5"></path>
        <path d="M821.72 556.46L814.85 656.43" stroke="#132e65" stroke-width="1.5"></path>
        <path d="M821.72 556.46L975.82 529.77" stroke="#132e65" stroke-width="1.5"></path>
        <path d="M814.85 656.43L814.85 656.43" stroke="#132e65" stroke-width="1.5"></path>
        <path d="M991.99 -50.08L991.99 -50.08" stroke="#132e65" stroke-width="1.5"></path>
        <path d="M991.99 -50.08L964.31 64.24" stroke="#132e65" stroke-width="1.5"></path>
        <path d="M991.99 -50.08L1113.93 -69.09" stroke="#132e65" stroke-width="1.5"></path>
        <path d="M991.99 -50.08L1141.13 76.57" stroke="#132e65" stroke-width="1.5"></path>
        <path d="M991.99 -50.08L1243.75 51.85" stroke="#132e65" stroke-width="1.5"></path>
        <path d="M991.99 -50.08L857.76 214.6" stroke="#132e65" stroke-width="1.5"></path>
        <path d="M991.99 -50.08L1297.59 -53.59" stroke="#132e65" stroke-width="1.5"></path>
        <path d="M964.31 64.24L964.31 64.24" stroke="#132e65" stroke-width="1.5"></path>
        <path d="M964.31 64.24L1141.13 76.57" stroke="#132e65" stroke-width="1.5"></path>
        <path d="M953.8 379.39L953.8 379.39" stroke="#132e65" stroke-width="1.5"></path>
        <path d="M953.8 379.39L975.82 529.77" stroke="#132e65" stroke-width="1.5"></path>
        <path d="M953.8 379.39L1138.18 404.27" stroke="#132e65" stroke-width="1.5"></path>
        <path d="M953.8 379.39L1098.3 531.68" stroke="#132e65" stroke-width="1.5"></path>
        <path d="M953.8 379.39L821.72 556.46" stroke="#132e65" stroke-width="1.5"></path>
        <path d="M975.82 529.77L975.82 529.77" stroke="#132e65" stroke-width="1.5"></path>
        <path d="M975.82 529.77L1098.3 531.68" stroke="#132e65" stroke-width="1.5"></path>
        <path d="M975.82 529.77L1009.98 669.66" stroke="#132e65" stroke-width="1.5"></path>
        <path d="M975.82 529.77L830.96 402.26" stroke="#132e65" stroke-width="1.5"></path>
        <path d="M975.82 529.77L1127.68 654.33" stroke="#132e65" stroke-width="1.5"></path>
        <path d="M1009.98 669.66L1009.98 669.66" stroke="#132e65" stroke-width="1.5"></path>
        <path d="M1009.98 669.66L1127.68 654.33" stroke="#132e65" stroke-width="1.5"></path>
        <path d="M1009.98 669.66L1098.3 531.68" stroke="#132e65" stroke-width="1.5"></path>
        <path d="M1009.98 669.66L814.85 656.43" stroke="#132e65" stroke-width="1.5"></path>
        <path d="M1113.93 -69.09L1113.93 -69.09" stroke="#132e65" stroke-width="1.5"></path>
        <path d="M1113.93 -69.09L1141.13 76.57" stroke="#132e65" stroke-width="1.5"></path>
        <path d="M1113.93 -69.09L1243.75 51.85" stroke="#132e65" stroke-width="1.5"></path>
        <path d="M1113.93 -69.09L1297.59 -53.59" stroke="#132e65" stroke-width="1.5"></path>
        <path d="M1141.13 76.57L1141.13 76.57" stroke="#132e65" stroke-width="1.5"></path>
        <path d="M1141.13 76.57L1243.75 51.85" stroke="#132e65" stroke-width="1.5"></path>
        <path d="M1141.13 76.57L1138.5 225.4" stroke="#132e65" stroke-width="1.5"></path>
        <path d="M1138.5 225.4L1138.5 225.4" stroke="#132e65" stroke-width="1.5"></path>
        <path d="M1138.5 225.4L1237.64 199.81" stroke="#132e65" stroke-width="1.5"></path>
        <path d="M1138.5 225.4L1138.18 404.27" stroke="#132e65" stroke-width="1.5"></path>
        <path d="M1138.5 225.4L1243.75 51.85" stroke="#132e65" stroke-width="1.5"></path>
        <path d="M1138.5 225.4L1278.38 406.64" stroke="#132e65" stroke-width="1.5"></path>
        <path d="M1138.5 225.4L964.31 64.24" stroke="#132e65" stroke-width="1.5"></path>
        <path d="M1138.18 404.27L1138.18 404.27" stroke="#132e65" stroke-width="1.5"></path>
        <path d="M1138.18 404.27L1098.3 531.68" stroke="#132e65" stroke-width="1.5"></path>
        <path d="M1138.18 404.27L1278.38 406.64" stroke="#132e65" stroke-width="1.5"></path>
        <path d="M1098.3 531.68L1098.3 531.68" stroke="#132e65" stroke-width="1.5"></path>
        <path d="M1098.3 531.68L1127.68 654.33" stroke="#132e65" stroke-width="1.5"></path>
        <path d="M1098.3 531.68L1265.97 503.37" stroke="#132e65" stroke-width="1.5"></path>
        <path d="M1098.3 531.68L1252.28 638.28" stroke="#132e65" stroke-width="1.5"></path>
        <path d="M1127.68 654.33L1127.68 654.33" stroke="#132e65" stroke-width="1.5"></path>
        <path d="M1127.68 654.33L1252.28 638.28" stroke="#132e65" stroke-width="1.5"></path>
        <path d="M1297.59 -53.59L1297.59 -53.59" stroke="#132e65" stroke-width="1.5"></path>
        <path d="M1297.59 -53.59L1243.75 51.85" stroke="#132e65" stroke-width="1.5"></path>
        <path d="M1297.59 -53.59L1441.06 -84.67" stroke="#132e65" stroke-width="1.5"></path>
        <path d="M1243.75 51.85L1243.75 51.85" stroke="#132e65" stroke-width="1.5"></path>
        <path d="M1243.75 51.85L1237.64 199.81" stroke="#132e65" stroke-width="1.5"></path>
        <path d="M1243.75 51.85L1433.43 100.96" stroke="#132e65" stroke-width="1.5"></path>
        <path d="M1237.64 199.81L1237.64 199.81" stroke="#132e65" stroke-width="1.5"></path>
        <path d="M1237.64 199.81L1141.13 76.57" stroke="#132e65" stroke-width="1.5"></path>
        <path d="M1237.64 199.81L1397.17 208.5" stroke="#132e65" stroke-width="1.5"></path>
        <path d="M1278.38 406.64L1278.38 406.64" stroke="#132e65" stroke-width="1.5"></path>
        <path d="M1278.38 406.64L1265.97 503.37" stroke="#132e65" stroke-width="1.5"></path>
        <path d="M1278.38 406.64L1453.85 397.6" stroke="#132e65" stroke-width="1.5"></path>
        <path d="M1278.38 406.64L1406.66 534.23" stroke="#132e65" stroke-width="1.5"></path>
        <path d="M1265.97 503.37L1265.97 503.37" stroke="#132e65" stroke-width="1.5"></path>
        <path d="M1265.97 503.37L1252.28 638.28" stroke="#132e65" stroke-width="1.5"></path>
        <path d="M1252.28 638.28L1252.28 638.28" stroke="#132e65" stroke-width="1.5"></path>
        <path d="M1252.28 638.28L1401.33 696.41" stroke="#132e65" stroke-width="1.5"></path>
        <path d="M1252.28 638.28L1406.66 534.23" stroke="#132e65" stroke-width="1.5"></path>
        <path d="M1252.28 638.28L1278.38 406.64" stroke="#132e65" stroke-width="1.5"></path>
        <path d="M1441.06 -84.67L1441.06 -84.67" stroke="#132e65" stroke-width="1.5"></path>
        <path d="M1441.06 -84.67L1544.21 -62.06" stroke="#132e65" stroke-width="1.5"></path>
        <path d="M1433.43 100.96L1433.43 100.96" stroke="#132e65" stroke-width="1.5"></path>
        <path d="M1433.43 100.96L1397.17 208.5" stroke="#132e65" stroke-width="1.5"></path>
        <path d="M1433.43 100.96L1578.95 57.7" stroke="#132e65" stroke-width="1.5"></path>
        <path d="M1433.43 100.96L1441.06 -84.67" stroke="#132e65" stroke-width="1.5"></path>
        <path d="M1397.17 208.5L1397.17 208.5" stroke="#132e65" stroke-width="1.5"></path>
        <path d="M1397.17 208.5L1580.76 250.38" stroke="#132e65" stroke-width="1.5"></path>
        <path d="M1397.17 208.5L1453.85 397.6" stroke="#132e65" stroke-width="1.5"></path>
        <path d="M1397.17 208.5L1243.75 51.85" stroke="#132e65" stroke-width="1.5"></path>
        <path d="M1397.17 208.5L1278.38 406.64" stroke="#132e65" stroke-width="1.5"></path>
        <path d="M1453.85 397.6L1453.85 397.6" stroke="#132e65" stroke-width="1.5"></path>
        <path d="M1453.85 397.6L1556.99 410.2" stroke="#132e65" stroke-width="1.5"></path>
        <path d="M1453.85 397.6L1406.66 534.23" stroke="#132e65" stroke-width="1.5"></path>
        <path d="M1453.85 397.6L1550.17 545.71" stroke="#132e65" stroke-width="1.5"></path>
        <path d="M1453.85 397.6L1580.76 250.38" stroke="#132e65" stroke-width="1.5"></path>
        <path d="M1406.66 534.23L1406.66 534.23" stroke="#132e65" stroke-width="1.5"></path>
        <path d="M1406.66 534.23L1550.17 545.71" stroke="#132e65" stroke-width="1.5"></path>
        <path d="M1406.66 534.23L1265.97 503.37" stroke="#132e65" stroke-width="1.5"></path>
        <path d="M1406.66 534.23L1401.33 696.41" stroke="#132e65" stroke-width="1.5"></path>
        <path d="M1401.33 696.41L1401.33 696.41" stroke="#132e65" stroke-width="1.5"></path>
        <path d="M1401.33 696.41L1568.91 646.49" stroke="#132e65" stroke-width="1.5"></path>
        <path d="M1401.33 696.41L1550.17 545.71" stroke="#132e65" stroke-width="1.5"></path>
        <path d="M1401.33 696.41L1265.97 503.37" stroke="#132e65" stroke-width="1.5"></path>
        <path d="M1401.33 696.41L1127.68 654.33" stroke="#132e65" stroke-width="1.5"></path>
        <path d="M1544.21 -62.06L1544.21 -62.06" stroke="#132e65" stroke-width="1.5"></path>
        <path d="M1544.21 -62.06L1578.95 57.7" stroke="#132e65" stroke-width="1.5"></path>
        <path d="M1578.95 57.7L1578.95 57.7" stroke="#132e65" stroke-width="1.5"></path>
        <path d="M1578.95 57.7L1580.76 250.38" stroke="#132e65" stroke-width="1.5"></path>
        <path d="M1578.95 57.7L1441.06 -84.67" stroke="#132e65" stroke-width="1.5"></path>
        <path d="M1580.76 250.38L1580.76 250.38" stroke="#132e65" stroke-width="1.5"></path>
        <path d="M1580.76 250.38L1556.99 410.2" stroke="#132e65" stroke-width="1.5"></path>
        <path d="M1556.99 410.2L1556.99 410.2" stroke="#132e65" stroke-width="1.5"></path>
        <path d="M1556.99 410.2L1550.17 545.71" stroke="#132e65" stroke-width="1.5"></path>
        <path d="M1550.17 545.71L1550.17 545.71" stroke="#132e65" stroke-width="1.5"></path>
        <path d="M1550.17 545.71L1568.91 646.49" stroke="#132e65" stroke-width="1.5"></path>
        <path d="M1568.91 646.49L1568.91 646.49" stroke="#132e65" stroke-width="1.5"></path>
        <circle r="5" cx="-111.92" cy="409.48" fill="#132e65"></circle>
        <circle r="5" cx="-49.92" cy="512.43" fill="#132e65"></circle>
        <circle r="5" cx="-43.49" cy="674.49" fill="#132e65"></circle>
        <circle r="5" cx="55.46" cy="383.97" fill="#132e65"></circle>
        <circle r="5" cx="57.95" cy="547.41" fill="#132e65"></circle>
        <circle r="5" cx="87.79" cy="658.77" fill="#132e65"></circle>
        <circle r="5" cx="207.92" cy="338.26" fill="#132e65"></circle>
        <circle r="5" cx="223.19" cy="502" fill="#132e65"></circle>
        <circle r="5" cx="243.86" cy="664.15" fill="#132e65"></circle>
        <circle r="5" cx="369.32" cy="508.76" fill="#132e65"></circle>
        <circle r="5" cx="404.05" cy="681.61" fill="#132e65"></circle>
        <circle r="5" cx="494.06" cy="528.64" fill="#132e65"></circle>
        <circle r="5" cx="539.37" cy="639.63" fill="#132e65"></circle>
        <circle r="5" cx="706.53" cy="230.1" fill="#132e65"></circle>
        <circle r="5" cx="702.78" cy="384.46" fill="#132e65"></circle>
        <circle r="5" cx="641.33" cy="542.96" fill="#132e65"></circle>
        <circle r="5" cx="678.99" cy="675.91" fill="#132e65"></circle>
        <circle r="5" cx="857.76" cy="214.6" fill="#132e65"></circle>
        <circle r="5" cx="830.96" cy="402.26" fill="#132e65"></circle>
        <circle r="5" cx="821.72" cy="556.46" fill="#132e65"></circle>
        <circle r="5" cx="814.85" cy="656.43" fill="#132e65"></circle>
        <circle r="5" cx="991.99" cy="-50.08" fill="#132e65"></circle>
        <circle r="5" cx="964.31" cy="64.24" fill="#132e65"></circle>
        <circle r="5" cx="953.8" cy="379.39" fill="#132e65"></circle>
        <circle r="5" cx="975.82" cy="529.77" fill="#132e65"></circle>
        <circle r="5" cx="1009.98" cy="669.66" fill="#132e65"></circle>
        <circle r="5" cx="1113.93" cy="-69.09" fill="#132e65"></circle>
        <circle r="5" cx="1141.13" cy="76.57" fill="#132e65"></circle>
        <circle r="5" cx="1138.5" cy="225.4" fill="#132e65"></circle>
        <circle r="5" cx="1138.18" cy="404.27" fill="#132e65"></circle>
        <circle r="5" cx="1098.3" cy="531.68" fill="#132e65"></circle>
        <circle r="5" cx="1127.68" cy="654.33" fill="#132e65"></circle>
        <circle r="5" cx="1297.59" cy="-53.59" fill="#132e65"></circle>
        <circle r="5" cx="1243.75" cy="51.85" fill="#132e65"></circle>
        <circle r="5" cx="1237.64" cy="199.81" fill="#132e65"></circle>
        <circle r="5" cx="1278.38" cy="406.64" fill="#132e65"></circle>
        <circle r="5" cx="1265.97" cy="503.37" fill="#132e65"></circle>
        <circle r="5" cx="1252.28" cy="638.28" fill="#132e65"></circle>
        <circle r="5" cx="1441.06" cy="-84.67" fill="#132e65"></circle>
        <circle r="5" cx="1433.43" cy="100.96" fill="#132e65"></circle>
        <circle r="5" cx="1397.17" cy="208.5" fill="#132e65"></circle>
        <circle r="5" cx="1453.85" cy="397.6" fill="#132e65"></circle>
        <circle r="5" cx="1406.66" cy="534.23" fill="#132e65"></circle>
        <circle r="5" cx="1401.33" cy="696.41" fill="#132e65"></circle>
        <circle r="5" cx="1544.21" cy="-62.06" fill="#132e65"></circle>
        <circle r="5" cx="1578.95" cy="57.7" fill="#132e65"></circle>
        <circle r="5" cx="1580.76" cy="250.38" fill="#132e65"></circle>
        <circle r="5" cx="1556.99" cy="410.2" fill="#132e65"></circle>
        <circle r="5" cx="1550.17" cy="545.71" fill="#132e65"></circle>
        <circle r="5" cx="1568.91" cy="646.49" fill="#132e65"></circle>
        <path d="M-43.62 644.23L-43.62 644.23" stroke="hsl(228.5, 77.2%, 51.5%)" stroke-width="1.5"></path>
        <path d="M-43.62 644.23L68.2 670.08" stroke="hsl(228.5, 77.2%, 51.5%)" stroke-width="1.5"></path>
        <path d="M-43.62 644.23L-103.46 527.28" stroke="hsl(228.5, 77.2%, 51.5%)" stroke-width="1.5"></path>
        <path d="M-43.62 644.23L42.74 518.93" stroke="hsl(228.5, 77.2%, 51.5%)" stroke-width="1.5"></path>
        <path d="M-43.62 644.23L197.57 654.69" stroke="hsl(228.5, 77.2%, 51.5%)" stroke-width="1.5"></path>
        <path d="M-43.62 644.23L242.78 561.84" stroke="hsl(228.5, 77.2%, 51.5%)" stroke-width="1.5"></path>
        <path d="M526.87 497.49L526.87 497.49" stroke="hsl(228.5, 77.2%, 51.5%)" stroke-width="1.5"></path>
        <path d="M526.87 497.49L362.13 501.83" stroke="hsl(228.5, 77.2%, 51.5%)" stroke-width="1.5"></path>
        <path d="M526.87 497.49L550.59 675.75" stroke="hsl(228.5, 77.2%, 51.5%)" stroke-width="1.5"></path>
        <path d="M526.87 497.49L681.75 389.38" stroke="hsl(228.5, 77.2%, 51.5%)" stroke-width="1.5"></path>
        <path d="M526.87 497.49L686.37 671.12" stroke="hsl(228.5, 77.2%, 51.5%)" stroke-width="1.5"></path>
        <path d="M526.87 497.49L382.45 686.93" stroke="hsl(228.5, 77.2%, 51.5%)" stroke-width="1.5"></path>
        <path d="M526.87 497.49L242.78 561.84" stroke="hsl(228.5, 77.2%, 51.5%)" stroke-width="1.5"></path>
        <path d="M960.58 343.83L960.58 343.83" stroke="hsl(228.5, 77.2%, 51.5%)" stroke-width="1.5"></path>
        <path d="M960.58 343.83L1102.25 366.12" stroke="hsl(228.5, 77.2%, 51.5%)" stroke-width="1.5"></path>
        <path d="M960.58 343.83L796.36 380.27" stroke="hsl(228.5, 77.2%, 51.5%)" stroke-width="1.5"></path>
        <path d="M939.89 686.74L939.89 686.74" stroke="hsl(228.5, 77.2%, 51.5%)" stroke-width="1.5"></path>
        <path d="M939.89 686.74L803.95 672.89" stroke="hsl(228.5, 77.2%, 51.5%)" stroke-width="1.5"></path>
        <path d="M1247.44 56.33L1247.44 56.33" stroke="hsl(228.5, 77.2%, 51.5%)" stroke-width="1.5"></path>
        <path d="M1247.44 56.33L1150.5 93.9" stroke="hsl(228.5, 77.2%, 51.5%)" stroke-width="1.5"></path>
        <path d="M1247.44 56.33L1415.65 80.88" stroke="hsl(228.5, 77.2%, 51.5%)" stroke-width="1.5"></path>
        <path d="M1247.44 56.33L1259.19 239.36" stroke="hsl(228.5, 77.2%, 51.5%)" stroke-width="1.5"></path>
        <path d="M1247.44 56.33L1106.15 238.79" stroke="hsl(228.5, 77.2%, 51.5%)" stroke-width="1.5"></path>
        <path d="M1268.11 705.01L1268.11 705.01" stroke="hsl(228.5, 77.2%, 51.5%)" stroke-width="1.5"></path>
        <path d="M1268.11 705.01L1161.47 641.48" stroke="hsl(228.5, 77.2%, 51.5%)" stroke-width="1.5"></path>
        <path d="M1268.11 705.01L1257.28 559.84" stroke="hsl(228.5, 77.2%, 51.5%)" stroke-width="1.5"></path>
        <path d="M1268.11 705.01L1424.15 674.87" stroke="hsl(228.5, 77.2%, 51.5%)" stroke-width="1.5"></path>
        <path d="M1268.11 705.01L1122.85 561.28" stroke="hsl(228.5, 77.2%, 51.5%)" stroke-width="1.5"></path>
        <path d="M1424.15 674.87L1424.15 674.87" stroke="hsl(228.5, 77.2%, 51.5%)" stroke-width="1.5"></path>
        <path d="M1424.15 674.87L1575.68 667.93" stroke="hsl(228.5, 77.2%, 51.5%)" stroke-width="1.5"></path>
        <path d="M1604.88 373.06L1604.88 373.06" stroke="hsl(228.5, 77.2%, 51.5%)" stroke-width="1.5"></path>
        <path d="M1604.88 373.06L1579.13 225.39" stroke="hsl(228.5, 77.2%, 51.5%)" stroke-width="1.5"></path>
        <path d="M1604.88 373.06L1592.62 531.45" stroke="hsl(228.5, 77.2%, 51.5%)" stroke-width="1.5"></path>
        <path d="M1604.88 373.06L1438.07 388.85" stroke="hsl(228.5, 77.2%, 51.5%)" stroke-width="1.5"></path>
        <path d="M1604.88 373.06L1449.2 235.07" stroke="hsl(228.5, 77.2%, 51.5%)" stroke-width="1.5"></path>
        <path d="M1592.62 531.45L1592.62 531.45" stroke="hsl(228.5, 77.2%, 51.5%)" stroke-width="1.5"></path>
        <path d="M1592.62 531.45L1575.68 667.93" stroke="hsl(228.5, 77.2%, 51.5%)" stroke-width="1.5"></path>
        <path d="M-103.46 527.28L-103.46 527.28" stroke="hsl(228.5, 77.2%, 51.5%)" stroke-width="1.5"></path>
        <path d="M-103.46 527.28L42.74 518.93" stroke="hsl(228.5, 77.2%, 51.5%)" stroke-width="1.5"></path>
        <path d="M42.74 518.93L42.74 518.93" stroke="hsl(228.5, 77.2%, 51.5%)" stroke-width="1.5"></path>
        <path d="M68.2 670.08L68.2 670.08" stroke="hsl(228.5, 77.2%, 51.5%)" stroke-width="1.5"></path>
        <path d="M68.2 670.08L197.57 654.69" stroke="hsl(228.5, 77.2%, 51.5%)" stroke-width="1.5"></path>
        <path d="M242.78 561.84L242.78 561.84" stroke="hsl(228.5, 77.2%, 51.5%)" stroke-width="1.5"></path>
        <path d="M242.78 561.84L197.57 654.69" stroke="hsl(228.5, 77.2%, 51.5%)" stroke-width="1.5"></path>
        <path d="M242.78 561.84L362.13 501.83" stroke="hsl(228.5, 77.2%, 51.5%)" stroke-width="1.5"></path>
        <path d="M242.78 561.84L382.45 686.93" stroke="hsl(228.5, 77.2%, 51.5%)" stroke-width="1.5"></path>
        <path d="M242.78 561.84L42.74 518.93" stroke="hsl(228.5, 77.2%, 51.5%)" stroke-width="1.5"></path>
        <path d="M242.78 561.84L68.2 670.08" stroke="hsl(228.5, 77.2%, 51.5%)" stroke-width="1.5"></path>
        <path d="M197.57 654.69L197.57 654.69" stroke="hsl(228.5, 77.2%, 51.5%)" stroke-width="1.5"></path>
        <path d="M197.57 654.69L382.45 686.93" stroke="hsl(228.5, 77.2%, 51.5%)" stroke-width="1.5"></path>
        <path d="M197.57 654.69L42.74 518.93" stroke="hsl(228.5, 77.2%, 51.5%)" stroke-width="1.5"></path>
        <path d="M362.13 501.83L362.13 501.83" stroke="hsl(228.5, 77.2%, 51.5%)" stroke-width="1.5"></path>
        <path d="M362.13 501.83L382.45 686.93" stroke="hsl(228.5, 77.2%, 51.5%)" stroke-width="1.5"></path>
        <path d="M382.45 686.93L382.45 686.93" stroke="hsl(228.5, 77.2%, 51.5%)" stroke-width="1.5"></path>
        <path d="M382.45 686.93L550.59 675.75" stroke="hsl(228.5, 77.2%, 51.5%)" stroke-width="1.5"></path>
        <path d="M550.59 675.75L550.59 675.75" stroke="hsl(228.5, 77.2%, 51.5%)" stroke-width="1.5"></path>
        <path d="M550.59 675.75L686.37 671.12" stroke="hsl(228.5, 77.2%, 51.5%)" stroke-width="1.5"></path>
        <path d="M681.75 389.38L681.75 389.38" stroke="hsl(228.5, 77.2%, 51.5%)" stroke-width="1.5"></path>
        <path d="M681.75 389.38L796.36 380.27" stroke="hsl(228.5, 77.2%, 51.5%)" stroke-width="1.5"></path>
        <path d="M681.75 389.38L686.37 671.12" stroke="hsl(228.5, 77.2%, 51.5%)" stroke-width="1.5"></path>
        <path d="M681.75 389.38L960.58 343.83" stroke="hsl(228.5, 77.2%, 51.5%)" stroke-width="1.5"></path>
        <path d="M686.37 671.12L686.37 671.12" stroke="hsl(228.5, 77.2%, 51.5%)" stroke-width="1.5"></path>
        <path d="M686.37 671.12L803.95 672.89" stroke="hsl(228.5, 77.2%, 51.5%)" stroke-width="1.5"></path>
        <path d="M686.37 671.12L939.89 686.74" stroke="hsl(228.5, 77.2%, 51.5%)" stroke-width="1.5"></path>
        <path d="M796.36 380.27L796.36 380.27" stroke="hsl(228.5, 77.2%, 51.5%)" stroke-width="1.5"></path>
        <path d="M796.36 380.27L988.81 543.3" stroke="hsl(228.5, 77.2%, 51.5%)" stroke-width="1.5"></path>
        <path d="M796.36 380.27L803.95 672.89" stroke="hsl(228.5, 77.2%, 51.5%)" stroke-width="1.5"></path>
        <path d="M796.36 380.27L526.87 497.49" stroke="hsl(228.5, 77.2%, 51.5%)" stroke-width="1.5"></path>
        <path d="M796.36 380.27L1102.25 366.12" stroke="hsl(228.5, 77.2%, 51.5%)" stroke-width="1.5"></path>
        <path d="M803.95 672.89L803.95 672.89" stroke="hsl(228.5, 77.2%, 51.5%)" stroke-width="1.5"></path>
        <path d="M988.81 543.3L988.81 543.3" stroke="hsl(228.5, 77.2%, 51.5%)" stroke-width="1.5"></path>
        <path d="M988.81 543.3L1122.85 561.28" stroke="hsl(228.5, 77.2%, 51.5%)" stroke-width="1.5"></path>
        <path d="M988.81 543.3L939.89 686.74" stroke="hsl(228.5, 77.2%, 51.5%)" stroke-width="1.5"></path>
        <path d="M1150.5 93.9L1150.5 93.9" stroke="hsl(228.5, 77.2%, 51.5%)" stroke-width="1.5"></path>
        <path d="M1150.5 93.9L1106.15 238.79" stroke="hsl(228.5, 77.2%, 51.5%)" stroke-width="1.5"></path>
        <path d="M1106.15 238.79L1106.15 238.79" stroke="hsl(228.5, 77.2%, 51.5%)" stroke-width="1.5"></path>
        <path d="M1106.15 238.79L1102.25 366.12" stroke="hsl(228.5, 77.2%, 51.5%)" stroke-width="1.5"></path>
        <path d="M1106.15 238.79L1259.19 239.36" stroke="hsl(228.5, 77.2%, 51.5%)" stroke-width="1.5"></path>
        <path d="M1106.15 238.79L960.58 343.83" stroke="hsl(228.5, 77.2%, 51.5%)" stroke-width="1.5"></path>
        <path d="M1102.25 366.12L1102.25 366.12" stroke="hsl(228.5, 77.2%, 51.5%)" stroke-width="1.5"></path>
        <path d="M1102.25 366.12L1245.53 384.71" stroke="hsl(228.5, 77.2%, 51.5%)" stroke-width="1.5"></path>
        <path d="M1102.25 366.12L1122.85 561.28" stroke="hsl(228.5, 77.2%, 51.5%)" stroke-width="1.5"></path>
        <path d="M1102.25 366.12L1259.19 239.36" stroke="hsl(228.5, 77.2%, 51.5%)" stroke-width="1.5"></path>
        <path d="M1102.25 366.12L988.81 543.3" stroke="hsl(228.5, 77.2%, 51.5%)" stroke-width="1.5"></path>
        <path d="M1122.85 561.28L1122.85 561.28" stroke="hsl(228.5, 77.2%, 51.5%)" stroke-width="1.5"></path>
        <path d="M1122.85 561.28L1161.47 641.48" stroke="hsl(228.5, 77.2%, 51.5%)" stroke-width="1.5"></path>
        <path d="M1122.85 561.28L1257.28 559.84" stroke="hsl(228.5, 77.2%, 51.5%)" stroke-width="1.5"></path>
        <path d="M1161.47 641.48L1161.47 641.48" stroke="hsl(228.5, 77.2%, 51.5%)" stroke-width="1.5"></path>
        <path d="M1259.19 239.36L1259.19 239.36" stroke="hsl(228.5, 77.2%, 51.5%)" stroke-width="1.5"></path>
        <path d="M1259.19 239.36L1245.53 384.71" stroke="hsl(228.5, 77.2%, 51.5%)" stroke-width="1.5"></path>
        <path d="M1245.53 384.71L1245.53 384.71" stroke="hsl(228.5, 77.2%, 51.5%)" stroke-width="1.5"></path>
        <path d="M1245.53 384.71L1257.28 559.84" stroke="hsl(228.5, 77.2%, 51.5%)" stroke-width="1.5"></path>
        <path d="M1245.53 384.71L1438.07 388.85" stroke="hsl(228.5, 77.2%, 51.5%)" stroke-width="1.5"></path>
        <path d="M1245.53 384.71L1106.15 238.79" stroke="hsl(228.5, 77.2%, 51.5%)" stroke-width="1.5"></path>
        <path d="M1245.53 384.71L1417.33 508.07" stroke="hsl(228.5, 77.2%, 51.5%)" stroke-width="1.5"></path>
        <path d="M1257.28 559.84L1257.28 559.84" stroke="hsl(228.5, 77.2%, 51.5%)" stroke-width="1.5"></path>
        <path d="M1257.28 559.84L1161.47 641.48" stroke="hsl(228.5, 77.2%, 51.5%)" stroke-width="1.5"></path>
        <path d="M1415.65 80.88L1415.65 80.88" stroke="hsl(228.5, 77.2%, 51.5%)" stroke-width="1.5"></path>
        <path d="M1415.65 80.88L1449.2 235.07" stroke="hsl(228.5, 77.2%, 51.5%)" stroke-width="1.5"></path>
        <path d="M1415.65 80.88L1605.42 75.9" stroke="hsl(228.5, 77.2%, 51.5%)" stroke-width="1.5"></path>
        <path d="M1415.65 80.88L1565.02 -55.04" stroke="hsl(228.5, 77.2%, 51.5%)" stroke-width="1.5"></path>
        <path d="M1415.65 80.88L1579.13 225.39" stroke="hsl(228.5, 77.2%, 51.5%)" stroke-width="1.5"></path>
        <path d="M1449.2 235.07L1449.2 235.07" stroke="hsl(228.5, 77.2%, 51.5%)" stroke-width="1.5"></path>
        <path d="M1449.2 235.07L1579.13 225.39" stroke="hsl(228.5, 77.2%, 51.5%)" stroke-width="1.5"></path>
        <path d="M1449.2 235.07L1438.07 388.85" stroke="hsl(228.5, 77.2%, 51.5%)" stroke-width="1.5"></path>
        <path d="M1438.07 388.85L1438.07 388.85" stroke="hsl(228.5, 77.2%, 51.5%)" stroke-width="1.5"></path>
        <path d="M1438.07 388.85L1417.33 508.07" stroke="hsl(228.5, 77.2%, 51.5%)" stroke-width="1.5"></path>
        <path d="M1417.33 508.07L1417.33 508.07" stroke="hsl(228.5, 77.2%, 51.5%)" stroke-width="1.5"></path>
        <path d="M1417.33 508.07L1424.15 674.87" stroke="hsl(228.5, 77.2%, 51.5%)" stroke-width="1.5"></path>
        <path d="M1417.33 508.07L1257.28 559.84" stroke="hsl(228.5, 77.2%, 51.5%)" stroke-width="1.5"></path>
        <path d="M1417.33 508.07L1592.62 531.45" stroke="hsl(228.5, 77.2%, 51.5%)" stroke-width="1.5"></path>
        <path d="M1565.02 -55.04L1565.02 -55.04" stroke="hsl(228.5, 77.2%, 51.5%)" stroke-width="1.5"></path>
        <path d="M1565.02 -55.04L1605.42 75.9" stroke="hsl(228.5, 77.2%, 51.5%)" stroke-width="1.5"></path>
        <path d="M1565.02 -55.04L1579.13 225.39" stroke="hsl(228.5, 77.2%, 51.5%)" stroke-width="1.5"></path>
        <path d="M1605.42 75.9L1605.42 75.9" stroke="hsl(228.5, 77.2%, 51.5%)" stroke-width="1.5"></path>
        <path d="M1605.42 75.9L1579.13 225.39" stroke="hsl(228.5, 77.2%, 51.5%)" stroke-width="1.5"></path>
        <path d="M1605.42 75.9L1449.2 235.07" stroke="hsl(228.5, 77.2%, 51.5%)" stroke-width="1.5"></path>
        <path d="M1605.42 75.9L1604.88 373.06" stroke="hsl(228.5, 77.2%, 51.5%)" stroke-width="1.5"></path>
        <path d="M1579.13 225.39L1579.13 225.39" stroke="hsl(228.5, 77.2%, 51.5%)" stroke-width="1.5"></path>
        <path d="M1579.13 225.39L1438.07 388.85" stroke="hsl(228.5, 77.2%, 51.5%)" stroke-width="1.5"></path>
        <path d="M1575.68 667.93L1575.68 667.93" stroke="hsl(228.5, 77.2%, 51.5%)" stroke-width="1.5"></path>
        <path d="M1575.68 667.93L1417.33 508.07" stroke="hsl(228.5, 77.2%, 51.5%)" stroke-width="1.5"></path>
        <path d="M1575.68 667.93L1604.88 373.06" stroke="hsl(228.5, 77.2%, 51.5%)" stroke-width="1.5"></path>
        <circle r="25" cx="-43.62" cy="644.23" fill="url(&quot;#SvgjsRadialGradient1013&quot;)"></circle>
        <circle r="25" cx="526.87" cy="497.49" fill="url(&quot;#SvgjsRadialGradient1013&quot;)"></circle>
        <circle r="25" cx="960.58" cy="343.83" fill="url(&quot;#SvgjsRadialGradient1013&quot;)"></circle>
        <circle r="25" cx="939.89" cy="686.74" fill="url(&quot;#SvgjsRadialGradient1013&quot;)"></circle>
        <circle r="25" cx="1247.44" cy="56.33" fill="url(&quot;#SvgjsRadialGradient1013&quot;)"></circle>
        <circle r="25" cx="1268.11" cy="705.01" fill="url(&quot;#SvgjsRadialGradient1013&quot;)"></circle>
        <circle r="25" cx="1424.15" cy="674.87" fill="url(&quot;#SvgjsRadialGradient1013&quot;)"></circle>
        <circle r="25" cx="1604.88" cy="373.06" fill="url(&quot;#SvgjsRadialGradient1013&quot;)"></circle>
        <circle r="25" cx="1592.62" cy="531.45" fill="url(&quot;#SvgjsRadialGradient1013&quot;)"></circle>
        <circle r="5" cx="-103.46" cy="527.28" fill="#8b9ad9"></circle>
        <circle r="5" cx="42.74" cy="518.93" fill="#8b9ad9"></circle>
        <circle r="5" cx="68.2" cy="670.08" fill="#8b9ad9"></circle>
        <circle r="5" cx="242.78" cy="561.84" fill="#8b9ad9"></circle>
        <circle r="5" cx="197.57" cy="654.69" fill="#8b9ad9"></circle>
        <circle r="5" cx="362.13" cy="501.83" fill="#8b9ad9"></circle>
        <circle r="5" cx="382.45" cy="686.93" fill="#8b9ad9"></circle>
        <circle r="5" cx="550.59" cy="675.75" fill="#8b9ad9"></circle>
        <circle r="5" cx="681.75" cy="389.38" fill="#8b9ad9"></circle>
        <circle r="5" cx="686.37" cy="671.12" fill="#8b9ad9"></circle>
        <circle r="5" cx="796.36" cy="380.27" fill="#8b9ad9"></circle>
        <circle r="5" cx="803.95" cy="672.89" fill="#8b9ad9"></circle>
        <circle r="5" cx="988.81" cy="543.3" fill="#8b9ad9"></circle>
        <circle r="5" cx="1150.5" cy="93.9" fill="#8b9ad9"></circle>
        <circle r="5" cx="1106.15" cy="238.79" fill="#8b9ad9"></circle>
        <circle r="5" cx="1102.25" cy="366.12" fill="#8b9ad9"></circle>
        <circle r="5" cx="1122.85" cy="561.28" fill="#8b9ad9"></circle>
        <circle r="5" cx="1161.47" cy="641.48" fill="#8b9ad9"></circle>
        <circle r="5" cx="1259.19" cy="239.36" fill="#8b9ad9"></circle>
        <circle r="5" cx="1245.53" cy="384.71" fill="#8b9ad9"></circle>
        <circle r="5" cx="1257.28" cy="559.84" fill="#8b9ad9"></circle>
        <circle r="5" cx="1415.65" cy="80.88" fill="#8b9ad9"></circle>
        <circle r="5" cx="1449.2" cy="235.07" fill="#8b9ad9"></circle>
        <circle r="5" cx="1438.07" cy="388.85" fill="#8b9ad9"></circle>
        <circle r="5" cx="1417.33" cy="508.07" fill="#8b9ad9"></circle>
        <circle r="5" cx="1565.02" cy="-55.04" fill="#8b9ad9"></circle>
        <circle r="5" cx="1605.42" cy="75.9" fill="#8b9ad9"></circle>
        <circle r="5" cx="1579.13" cy="225.39" fill="#8b9ad9"></circle>
        <circle r="5" cx="1575.68" cy="667.93" fill="#8b9ad9"></circle>
    </g>
    <defs>
        <linearGradient id="bgLinear" x1="0" y1="0" x2="0" y2="1">
            <stop offset="0%" stop-color="#090f1d"></stop>
            <stop offset="55%" stop-color="#0e172a"></stop>
            <stop offset="100%" stop-color="#111827"></stop>
        </linearGradient>
        <radialGradient id="bgRadialTopLeft" cx="10%" cy="15%" r="32%">
            <stop offset="0%" stop-color="#6366f1" stop-opacity="0.13"></stop>
            <stop offset="100%" stop-color="#6366f1" stop-opacity="0"></stop>
        </radialGradient>
        <radialGradient id="bgRadialTopRight" cx="88%" cy="12%" r="28%">
            <stop offset="0%" stop-color="#0ea5e9" stop-opacity="0.13"></stop>
            <stop offset="100%" stop-color="#0ea5e9" stop-opacity="0"></stop>
        </radialGradient>
        <radialGradient id="bgRadialBottom" cx="50%" cy="100%" r="34%">
            <stop offset="0%" stop-color="#14b8a6" stop-opacity="0.13"></stop>
            <stop offset="100%" stop-color="#14b8a6" stop-opacity="0"></stop>
        </radialGradient>
        <mask id="SvgjsMask1012">
            <rect width="1440" height="560" fill="#ffffff"></rect>
        </mask>
        <radialGradient id="SvgjsRadialGradient1013">
            <stop stop-color="#ffffff" offset="0.1"></stop>
            <stop stop-color="#1735b3" offset="0.2"></stop>
            <stop stop-color="rgba(23, 53, 179, 0)" offset="1"></stop>
        </radialGradient>
    </defs>
</svg>
